<?xml version="1.0" encoding="UTF-8" standalone="no"?>
<!-- Created with Inkscape (http://www.inkscape.org/) -->

<svg
   xmlns:dc="http://purl.org/dc/elements/1.1/"
   xmlns:cc="http://creativecommons.org/ns#"
   xmlns:rdf="http://www.w3.org/1999/02/22-rdf-syntax-ns#"
   xmlns:svg="http://www.w3.org/2000/svg"
   xmlns="http://www.w3.org/2000/svg"
   xmlns:sodipodi="http://sodipodi.sourceforge.net/DTD/sodipodi-0.dtd"
   xmlns:inkscape="http://www.inkscape.org/namespaces/inkscape"
   width="83.973839mm"
   height="21.09042mm"
   viewBox="0 0 83.973838 21.09042"
   version="1.1"
   id="svg8"
   inkscape:version="0.92.5 (2060ec1f9f, 2020-04-08)"
   sodipodi:docname="logo-color-no-text.svg">
  <defs
     id="defs2" />
  <sodipodi:namedview
     id="base"
     pagecolor="#ffffff"
     bordercolor="#666666"
     borderopacity="1.0"
     inkscape:pageopacity="0.0"
     inkscape:pageshadow="2"
     inkscape:zoom="3.959798"
     inkscape:cx="162.75413"
     inkscape:cy="57.550732"
     inkscape:document-units="mm"
     inkscape:current-layer="g4819"
     showgrid="false"
     inkscape:window-width="1920"
     inkscape:window-height="1011"
     inkscape:window-x="0"
     inkscape:window-y="32"
     inkscape:window-maximized="1"
     fit-margin-top="0"
     fit-margin-left="0"
     fit-margin-right="0"
     fit-margin-bottom="0"
     showguides="false" />
  <metadata
     id="metadata5">
    <rdf:RDF>
      <cc:Work
         rdf:about="">
        <dc:format>image/svg+xml</dc:format>
        <dc:type
           rdf:resource="http://purl.org/dc/dcmitype/StillImage" />
        <dc:title></dc:title>
      </cc:Work>
    </rdf:RDF>
  </metadata>
  <g
     inkscape:label="Ebene 1"
     inkscape:groupmode="layer"
     id="layer1"
     transform="translate(-67.359818,-184.30628)">
    <g
       id="g4819">
      <g
         transform="translate(-64.539434,28.631697)"
         id="g4766">
        <g
           id="g4748">
          <g
             style="fill:none;fill-opacity:1"
             transform="translate(-0.14326099)"
             id="g4724" />
          <g
             style="fill:none;fill-opacity:1"
             transform="translate(-0.09314346)"
             id="g4720">
            <g
               style="fill:none;fill-opacity:1"
               id="g4728" />
          </g>
        </g>
      </g>
      <g
         id="g1418">
        <g
           aria-label="OpenSYCL"
           style="font-style:normal;font-weight:normal;font-size:17.23652267px;line-height:1.25;font-family:sans-serif;letter-spacing:0px;word-spacing:0px;fill:#383838;fill-opacity:1;stroke:none;stroke-width:0.43091303"
           id="text4770">
          <path
             d="m 80.853632,190.70103 c 0,2.91297 -0.896299,4.39531 -2.844026,4.39531 -1.964963,0 -2.878499,-1.48234 -2.844026,-4.39531 0,-2.91297 0.896299,-4.39531 2.844026,-4.39531 1.947727,0 2.844026,1.48234 2.844026,4.39531 z m 2.37864,0 c 0,-4.06782 -1.827071,-6.39475 -5.222666,-6.39475 -3.395595,0 -5.222666,2.32693 -5.222666,6.39475 0,4.06782 1.827071,6.39475 5.222666,6.39475 3.395595,0 5.222666,-2.32693 5.222666,-6.39475 z"
             style="fill:#c50d29;fill-opacity:1"
             id="path823" />
          <path
             d="m 84.869739,200.19836 h 2.137329 v -4.1023 h 0.03447 c 0.430913,0.56881 1.447868,0.99972 2.171802,0.99972 2.309694,0 3.585196,-2.20627 3.585196,-4.41255 0,-2.79232 -1.206556,-4.89517 -3.585196,-4.89517 -0.965246,0 -1.671943,0.39644 -2.292458,0.99972 v -0.82736 h -2.051146 z m 2.137329,-9.89377 c 0.448149,-0.34473 0.74117,-0.79288 1.654706,-0.79288 1.275503,0 1.999437,1.03419 1.999437,2.93021 0,1.89602 -0.723934,2.93021 -1.999437,2.93021 -0.689461,0 -1.223793,-0.36197 -1.654706,-0.75841 z"
             style="fill:#c50d29;fill-opacity:1"
             id="path825" />
          <path
             d="m 95.901111,191.33878 c 0.03447,-1.24103 0.689461,-1.96496 1.723652,-1.96496 1.034191,0 1.689179,0.72393 1.723652,1.96496 z m 5.412269,1.44787 v -0.87906 c 0,-2.15457 -1.30998,-4.13677 -3.654144,-4.11953 -2.43035,0 -3.895454,1.80983 -3.895454,4.65386 0,2.84403 1.465104,4.65386 3.792035,4.65386 1.723652,0 2.930213,-0.55157 3.757563,-1.82707 l -1.551288,-0.96525 c -0.534332,0.62052 -0.999719,1.06867 -1.999437,1.06867 -0.999718,0 -1.827071,-0.72393 -1.861544,-2.58548 z"
             style="fill:#c50d29;fill-opacity:1"
             id="path827" />
          <path
             d="m 105.2088,196.92342 v -6.4637 c 0.36197,-0.41368 1.06866,-0.94801 1.99944,-0.94801 0.72393,0 1.10313,0.3792 1.10313,1.58576 v 5.82595 h 2.13733 v -6.13621 c 0,-1.82707 -0.86182,-2.99915 -2.65442,-2.99915 -1.05143,0 -1.96496,0.58604 -2.75784,1.13761 v -0.96525 h -1.96497 v 8.963 z"
             style="fill:#c50d29;fill-opacity:1"
             id="path829" />
          <path
             d="m 120.94574,187.11583 c -0.74117,-1.80983 -2.39588,-2.80955 -4.39531,-2.80955 -2.15457,0 -4.01611,1.25827 -4.01611,3.48178 0,3.82651 6.41198,3.34388 6.41198,5.79147 0,1.20656 -0.91353,1.65471 -2.10285,1.65471 -1.39616,0 -2.13733,-0.77565 -2.70614,-1.94773 l -1.96496,0.86183 c 0.7067,1.80983 2.61995,2.94744 4.65386,2.94744 2.75784,0 4.36084,-1.2755 4.36084,-3.82651 0,-4.03334 -6.41199,-3.58519 -6.41199,-5.72252 0,-0.96525 0.74117,-1.37892 1.77537,-1.37892 1.12037,0 1.86154,0.65498 2.22351,1.62023 z"
             style="font-style:normal;font-variant:normal;font-weight:bold;font-stretch:normal;font-size:17.23652267px;font-family:'Trade Gothic LT Std';-inkscape-font-specification:'Trade Gothic LT Std, Bold';font-variant-ligatures:normal;font-variant-caps:normal;font-variant-numeric:normal;font-feature-settings:normal;text-align:start;writing-mode:lr-tb;text-anchor:start;fill:#383838;fill-opacity:1;stroke-width:0.43091303"
             id="path831" />
          <path
             d="m 124.73775,184.47865 h -2.48206 l 3.43006,7.48065 v 4.96412 h 2.37864 v -4.96412 l 3.43007,-7.48065 h -2.48206 l -2.13733,4.92964 z"
             style="font-style:normal;font-variant:normal;font-weight:bold;font-stretch:normal;font-size:17.23652267px;font-family:'Trade Gothic LT Std';-inkscape-font-specification:'Trade Gothic LT Std, Bold';font-variant-ligatures:normal;font-variant-caps:normal;font-variant-numeric:normal;font-feature-settings:normal;text-align:start;writing-mode:lr-tb;text-anchor:start;fill:#383838;fill-opacity:1;stroke-width:0.43091303"
             id="path833" />
          <path
             d="m 141.52612,187.58122 c -0.58605,-2.20627 -1.96497,-3.27494 -4.34361,-3.27494 -3.17152,0 -4.99859,2.32693 -4.99859,6.39475 0,4.06782 1.82707,6.39475 4.99859,6.39475 2.27522,0 3.89546,-1.10314 4.63663,-3.2577 l -2.20628,-0.58604 c -0.7067,1.4651 -1.36168,1.8443 -2.43035,1.8443 -1.7926,0 -2.65442,-1.48234 -2.61995,-4.39531 0,-2.91297 0.96525,-4.39531 2.55101,-4.39531 1.17208,0 1.91325,0.74117 2.25798,1.7926 z"
             style="font-style:normal;font-variant:normal;font-weight:bold;font-stretch:normal;font-size:17.23652267px;font-family:'Trade Gothic LT Std';-inkscape-font-specification:'Trade Gothic LT Std, Bold';font-variant-ligatures:normal;font-variant-caps:normal;font-variant-numeric:normal;font-feature-settings:normal;text-align:start;writing-mode:lr-tb;text-anchor:start;fill:#383838;fill-opacity:1;stroke-width:0.43091303"
             id="path835" />
          <path
             d="m 151.33366,196.92342 v -1.99944 h -5.41227 v -10.44533 h -2.37864 v 12.44477 z"
             style="font-style:normal;font-variant:normal;font-weight:bold;font-stretch:normal;font-size:17.23652267px;font-family:'Trade Gothic LT Std';-inkscape-font-specification:'Trade Gothic LT Std, Bold';font-variant-ligatures:normal;font-variant-caps:normal;font-variant-numeric:normal;font-feature-settings:normal;text-align:start;writing-mode:lr-tb;text-anchor:start;fill:#383838;fill-opacity:1;stroke-width:0.43091303"
             id="path837" />
        </g>
        <path
           sodipodi:nodetypes="cczszszszccc"
           inkscape:connector-curvature="0"
           id="path4682"
           d="m 72.003244,189.60551 c -2.656947,1.73051 -4.642452,3.91523 -4.643426,6.17197 4.3e-5,5.31258 7.687674,9.62174 15.527619,9.61922 7.839945,-0.003 13.820774,-2.46399 18.196333,-3.92825 4.37556,-1.46426 9.77759,-2.13051 14.693,-2.26569 4.91541,-0.13518 19.97911,-0.6127 19.76141,-0.63052 -0.73296,-0.06 -14.90552,0.021 -19.7976,0.021 -4.89208,0 -10.05289,0.49092 -15.03978,1.82715 -4.638183,1.2428 -9.357904,3.22267 -16.745976,3.22267 -7.388072,0 -13.940081,-4.30688 -13.939829,-9.61951 0.0053,-1.53814 0.687131,-3.05316 1.988249,-4.41797 z"
           style="fill:#c50d29;fill-opacity:1;stroke:none;stroke-width:0.14904052;stroke-linejoin:miter;stroke-miterlimit:4;stroke-dasharray:none;stroke-opacity:1" />
      </g>
    </g>
  </g>
</svg>
