<?xml version="1.0" encoding="UTF-8" standalone="no"?>
<!DOCTYPE svg PUBLIC "-//W3C//DTD SVG 1.1//EN"
 "http://www.w3.org/Graphics/SVG/1.1/DTD/svg11.dtd">
<!-- Generated by graphviz version 2.46.1 (0)
 -->
<!-- Pages: 1 -->
<svg width="1012pt" height="1318pt"
 viewBox="0.00 0.00 1012.00 1318.00" xmlns="http://www.w3.org/2000/svg" xmlns:xlink="http://www.w3.org/1999/xlink">
<g id="graph0" class="graph" transform="scale(1 1) rotate(0) translate(4 1314)">
<polygon fill="white" stroke="transparent" points="-4,4 -4,-1314 1008,-1314 1008,4 -4,4"/>
<!-- root -->
<g id="node1" class="node">
<title>root</title>
<path fill="#d5e8d4" stroke="#d5e8d4" d="M182,-480C182,-480 62,-480 62,-480 56,-480 50,-474 50,-468 50,-468 50,-427 50,-427 50,-421 56,-415 62,-415 62,-415 182,-415 182,-415 188,-415 194,-421 194,-427 194,-427 194,-468 194,-468 194,-474 188,-480 182,-480"/>
<text text-anchor="middle" x="122" y="-443.8" font-family="Times,serif" font-size="14.00" fill="#000000">SYCL source code</text>
</g>
<!-- DPC++ -->
<g id="node10" class="node">
<title>DPC++</title>
<path fill="#117ac9" stroke="#117ac9" d="M470,-1144C470,-1144 314,-1144 314,-1144 308,-1144 302,-1138 302,-1132 302,-1132 302,-1091 302,-1091 302,-1085 308,-1079 314,-1079 314,-1079 470,-1079 470,-1079 476,-1079 482,-1085 482,-1091 482,-1091 482,-1132 482,-1132 482,-1138 476,-1144 470,-1144"/>
<text text-anchor="middle" x="392" y="-1107.8" font-family="Times,serif" font-size="14.00" fill="#ffffff">DPC++</text>
</g>
<!-- root&#45;&gt;DPC++ -->
<g id="edge9" class="edge">
<title>root:e&#45;&gt;DPC++:w</title>
<path fill="none" stroke="#117ac9" stroke-width="2" d="M195,-447.5C223.68,-447.5 230.82,-464.03 244,-489.5 274.35,-548.13 236.64,-1057.97 292.62,-1107.62"/>
<polygon fill="#117ac9" stroke="#117ac9" stroke-width="2" points="291.42,-1110.91 302,-1111.5 294.1,-1104.44 291.42,-1110.91"/>
</g>
<!-- hipSYCL -->
<g id="node19" class="node">
<title>hipSYCL</title>
<path fill="#545454" stroke="#545454" d="M470,-812C470,-812 314,-812 314,-812 308,-812 302,-806 302,-800 302,-800 302,-759 302,-759 302,-753 308,-747 314,-747 314,-747 470,-747 470,-747 476,-747 482,-753 482,-759 482,-759 482,-800 482,-800 482,-806 476,-812 470,-812"/>
<text text-anchor="middle" x="392" y="-775.8" font-family="Times,serif" font-size="14.00" fill="#ffffff">hipSYCL</text>
</g>
<!-- root&#45;&gt;hipSYCL -->
<g id="edge18" class="edge">
<title>root:e&#45;&gt;hipSYCL:w</title>
<path fill="none" stroke="#c50d28" stroke-width="2" d="M195,-447.5C223.68,-447.5 229.51,-464.75 244,-489.5 275.4,-543.11 240.53,-754.51 292.15,-777.47"/>
<polygon fill="#c50d28" stroke="#c50d28" stroke-width="2" points="291.5,-780.91 302,-779.5 292.91,-774.06 291.5,-780.91"/>
</g>
<!-- triSYCL -->
<g id="node26" class="node">
<title>triSYCL</title>
<path fill="#161b2c" stroke="#161b2c" d="M470,-563C470,-563 314,-563 314,-563 308,-563 302,-557 302,-551 302,-551 302,-510 302,-510 302,-504 308,-498 314,-498 314,-498 470,-498 470,-498 476,-498 482,-504 482,-510 482,-510 482,-551 482,-551 482,-557 476,-563 470,-563"/>
<text text-anchor="middle" x="392" y="-526.8" font-family="Times,serif" font-size="14.00" fill="#ffffff">triSYCL</text>
</g>
<!-- root&#45;&gt;triSYCL -->
<g id="edge25" class="edge">
<title>root:e&#45;&gt;triSYCL:w</title>
<path fill="none" stroke="#ed3924" stroke-width="2" d="M195,-447.5C251.54,-447.5 243.16,-520.75 291.84,-529.62"/>
<polygon fill="#ed3924" stroke="#ed3924" stroke-width="2" points="291.74,-533.13 302,-530.5 292.34,-526.15 291.74,-533.13"/>
</g>
<!-- neoSYCL -->
<g id="node29" class="node">
<title>neoSYCL</title>
<path fill="#1413a8" stroke="#1413a8" d="M470,-397C470,-397 314,-397 314,-397 308,-397 302,-391 302,-385 302,-385 302,-344 302,-344 302,-338 308,-332 314,-332 314,-332 470,-332 470,-332 476,-332 482,-338 482,-344 482,-344 482,-385 482,-385 482,-391 476,-397 470,-397"/>
<text text-anchor="middle" x="392" y="-360.8" font-family="Times,serif" font-size="14.00" fill="#ffffff">neoSYCL</text>
</g>
<!-- root&#45;&gt;neoSYCL -->
<g id="edge28" class="edge">
<title>root:e&#45;&gt;neoSYCL:w</title>
<path fill="none" stroke="#1413a8" stroke-width="2" d="M195,-447.5C251.54,-447.5 243.16,-374.25 291.84,-365.38"/>
<polygon fill="#1413a8" stroke="#1413a8" stroke-width="2" points="292.34,-368.85 302,-364.5 291.74,-361.87 292.34,-368.85"/>
</g>
<!-- ComputeCpp -->
<g id="node36" class="node">
<title>ComputeCpp</title>
<path fill="#993696" stroke="#993696" d="M470,-231C470,-231 314,-231 314,-231 308,-231 302,-225 302,-219 302,-219 302,-178 302,-178 302,-172 308,-166 314,-166 314,-166 470,-166 470,-166 476,-166 482,-172 482,-178 482,-178 482,-219 482,-219 482,-225 476,-231 470,-231"/>
<text text-anchor="middle" x="392" y="-194.8" font-family="Times,serif" font-size="14.00" fill="#ffffff">ComputeCpp</text>
</g>
<!-- root&#45;&gt;ComputeCpp -->
<g id="edge35" class="edge">
<title>root:e&#45;&gt;ComputeCpp:w</title>
<path fill="none" stroke="#a6d4fc" stroke-width="2" d="M195,-447.5C311.81,-447.5 189.42,-213.35 291.75,-199.17"/>
<polygon fill="#a6d4fc" stroke="#a6d4fc" stroke-width="2" points="292.25,-202.65 302,-198.5 291.79,-195.66 292.25,-202.65"/>
</g>
<!-- sycl&#45;gtx -->
<g id="node39" class="node">
<title>sycl&#45;gtx</title>
<path fill="#0f739e" stroke="#0f739e" d="M470,-65C470,-65 314,-65 314,-65 308,-65 302,-59 302,-53 302,-53 302,-12 302,-12 302,-6 308,0 314,0 314,0 470,0 470,0 476,0 482,-6 482,-12 482,-12 482,-53 482,-53 482,-59 476,-65 470,-65"/>
<text text-anchor="middle" x="392" y="-28.8" font-family="Times,serif" font-size="14.00" fill="#ffffff">sycl&#45;gtx</text>
</g>
<!-- root&#45;&gt;sycl&#45;gtx -->
<g id="edge38" class="edge">
<title>root:e&#45;&gt;sycl&#45;gtx:w</title>
<path fill="none" stroke="#ff9b43" stroke-width="2" stroke-dasharray="5,2" d="M195,-447.5C381.94,-447.5 121.53,-47.76 291.87,-32.92"/>
<polygon fill="#ff9b43" stroke="#ff9b43" stroke-width="2" points="292.15,-36.41 302,-32.5 291.86,-29.42 292.15,-36.41"/>
<text text-anchor="middle" x="284.24" y="-38" font-family="Times,serif" font-size="14.00">[3]</text>
</g>
<!-- dpcpp_host -->
<g id="node2" class="node">
<title>dpcpp_host</title>
<path fill="#117ac9" stroke="#117ac9" d="M708,-1310C708,-1310 552,-1310 552,-1310 546,-1310 540,-1304 540,-1298 540,-1298 540,-1257 540,-1257 540,-1251 546,-1245 552,-1245 552,-1245 708,-1245 708,-1245 714,-1245 720,-1251 720,-1257 720,-1257 720,-1298 720,-1298 720,-1304 714,-1310 708,-1310"/>
<text text-anchor="middle" x="630" y="-1273.8" font-family="Times,serif" font-size="14.00" fill="#ffffff">Host</text>
</g>
<!-- dpcpp_host_supported_hw -->
<g id="node3" class="node">
<title>dpcpp_host_supported_hw</title>
<polygon fill="transparent" stroke="transparent" points="923,-1285 859,-1285 859,-1270 923,-1270 923,-1285"/>
<text text-anchor="middle" x="891" y="-1273.8" font-family="Times,serif" font-size="14.00">Any CPU</text>
</g>
<!-- dpcpp_host&#45;&gt;dpcpp_host_supported_hw -->
<!-- dpcpp_opencl -->
<g id="node4" class="node">
<title>dpcpp_opencl</title>
<path fill="#117ac9" stroke="#117ac9" d="M708,-1227C708,-1227 552,-1227 552,-1227 546,-1227 540,-1221 540,-1215 540,-1215 540,-1174 540,-1174 540,-1168 546,-1162 552,-1162 552,-1162 708,-1162 708,-1162 714,-1162 720,-1168 720,-1174 720,-1174 720,-1215 720,-1215 720,-1221 714,-1227 708,-1227"/>
<text text-anchor="middle" x="630" y="-1190.8" font-family="Times,serif" font-size="14.00" fill="#ffffff">OpenCL+SPIR&#45;V</text>
</g>
<!-- dpcpp_opencl_supported_hw -->
<g id="node5" class="node">
<title>dpcpp_opencl_supported_hw</title>
<polygon fill="transparent" stroke="transparent" points="933.5,-1217 848.5,-1217 848.5,-1172 933.5,-1172 933.5,-1217"/>
<text text-anchor="middle" x="891" y="-1205.8" font-family="Times,serif" font-size="14.00">Intel CPUs</text>
<text text-anchor="middle" x="891" y="-1190.8" font-family="Times,serif" font-size="14.00">Intel GPUs</text>
<text text-anchor="middle" x="891" y="-1175.8" font-family="Times,serif" font-size="14.00">Intel FGPAs</text>
</g>
<!-- dpcpp_opencl&#45;&gt;dpcpp_opencl_supported_hw -->
<!-- dpcpp_cuda -->
<g id="node6" class="node">
<title>dpcpp_cuda</title>
<path fill="#117ac9" stroke="#117ac9" d="M708,-1144C708,-1144 552,-1144 552,-1144 546,-1144 540,-1138 540,-1132 540,-1132 540,-1091 540,-1091 540,-1085 546,-1079 552,-1079 552,-1079 708,-1079 708,-1079 714,-1079 720,-1085 720,-1091 720,-1091 720,-1132 720,-1132 720,-1138 714,-1144 708,-1144"/>
<text text-anchor="middle" x="630" y="-1115.3" font-family="Times,serif" font-size="14.00" fill="#ffffff">CUDA</text>
<text text-anchor="middle" x="630" y="-1100.3" font-family="Times,serif" font-size="14.00" fill="#ffffff">(driver API)</text>
</g>
<!-- dpcpp_cuda_supported_hw -->
<g id="node7" class="node">
<title>dpcpp_cuda_supported_hw</title>
<polygon fill="transparent" stroke="transparent" points="940,-1119 842,-1119 842,-1104 940,-1104 940,-1119"/>
<text text-anchor="middle" x="891" y="-1107.8" font-family="Times,serif" font-size="14.00">NVIDIA GPUs</text>
</g>
<!-- dpcpp_cuda&#45;&gt;dpcpp_cuda_supported_hw -->
<!-- dpcpp_l0 -->
<g id="node8" class="node">
<title>dpcpp_l0</title>
<path fill="#117ac9" stroke="#117ac9" d="M708,-1061C708,-1061 552,-1061 552,-1061 546,-1061 540,-1055 540,-1049 540,-1049 540,-1008 540,-1008 540,-1002 546,-996 552,-996 552,-996 708,-996 708,-996 714,-996 720,-1002 720,-1008 720,-1008 720,-1049 720,-1049 720,-1055 714,-1061 708,-1061"/>
<text text-anchor="middle" x="630" y="-1024.8" font-family="Times,serif" font-size="14.00" fill="#ffffff">Level Zero</text>
</g>
<!-- dpcpp_l0_supported_hw -->
<g id="node9" class="node">
<title>dpcpp_l0_supported_hw</title>
<polygon fill="transparent" stroke="transparent" points="930,-1036 852,-1036 852,-1021 930,-1021 930,-1036"/>
<text text-anchor="middle" x="891" y="-1024.8" font-family="Times,serif" font-size="14.00">Intel GPUs</text>
</g>
<!-- dpcpp_l0&#45;&gt;dpcpp_l0_supported_hw -->
<!-- DPC++&#45;&gt;dpcpp_host -->
<g id="edge5" class="edge">
<title>DPC++:e&#45;&gt;dpcpp_host:w</title>
<path fill="none" stroke="#117ac9" stroke-width="2" d="M482,-1111.5C556.34,-1111.5 471.03,-1261.68 529.77,-1276.35"/>
<polygon fill="#117ac9" stroke="#117ac9" stroke-width="2" points="529.67,-1279.86 540,-1277.5 530.45,-1272.91 529.67,-1279.86"/>
</g>
<!-- DPC++&#45;&gt;dpcpp_opencl -->
<g id="edge6" class="edge">
<title>DPC++:e&#45;&gt;dpcpp_opencl:w</title>
<path fill="none" stroke="#117ac9" stroke-width="2" d="M482,-1111.5C523.14,-1111.5 499.93,-1180.85 530.01,-1192.77"/>
<polygon fill="#117ac9" stroke="#117ac9" stroke-width="2" points="529.55,-1196.24 540,-1194.5 530.75,-1189.34 529.55,-1196.24"/>
</g>
<!-- DPC++&#45;&gt;dpcpp_cuda -->
<g id="edge7" class="edge">
<title>DPC++:e&#45;&gt;dpcpp_cuda:w</title>
<path fill="none" stroke="#117ac9" stroke-width="2" d="M482,-1111.5C503.95,-1111.5 511.88,-1111.5 529.67,-1111.5"/>
<polygon fill="#117ac9" stroke="#117ac9" stroke-width="2" points="530,-1115 540,-1111.5 530,-1108 530,-1115"/>
</g>
<!-- DPC++&#45;&gt;dpcpp_l0 -->
<g id="edge8" class="edge">
<title>DPC++:e&#45;&gt;dpcpp_l0:w</title>
<path fill="none" stroke="#117ac9" stroke-width="2" d="M482,-1111.5C523.14,-1111.5 499.93,-1042.15 530.01,-1030.23"/>
<polygon fill="#117ac9" stroke="#117ac9" stroke-width="2" points="530.75,-1033.66 540,-1028.5 529.55,-1026.76 530.75,-1033.66"/>
</g>
<!-- hipsycl_cuda -->
<g id="node11" class="node">
<title>hipsycl_cuda</title>
<path fill="#545454" stroke="#545454" d="M708,-978C708,-978 552,-978 552,-978 546,-978 540,-972 540,-966 540,-966 540,-925 540,-925 540,-919 546,-913 552,-913 552,-913 708,-913 708,-913 714,-913 720,-919 720,-925 720,-925 720,-966 720,-966 720,-972 714,-978 708,-978"/>
<text text-anchor="middle" x="630" y="-949.3" font-family="Times,serif" font-size="14.00" fill="#ffffff">CUDA</text>
<text text-anchor="middle" x="630" y="-934.3" font-family="Times,serif" font-size="14.00" fill="#ffffff">(runtime API)</text>
</g>
<!-- hipsycl_cuda_supported_hw -->
<g id="node12" class="node">
<title>hipsycl_cuda_supported_hw</title>
<polygon fill="transparent" stroke="transparent" points="940,-953 842,-953 842,-938 940,-938 940,-953"/>
<text text-anchor="middle" x="891" y="-941.8" font-family="Times,serif" font-size="14.00">NVIDIA GPUs</text>
</g>
<!-- hipsycl_cuda&#45;&gt;hipsycl_cuda_supported_hw -->
<!-- hipsycl_rocm -->
<g id="node13" class="node">
<title>hipsycl_rocm</title>
<path fill="#545454" stroke="#545454" d="M708,-895C708,-895 552,-895 552,-895 546,-895 540,-889 540,-883 540,-883 540,-842 540,-842 540,-836 546,-830 552,-830 552,-830 708,-830 708,-830 714,-830 720,-836 720,-842 720,-842 720,-883 720,-883 720,-889 714,-895 708,-895"/>
<text text-anchor="middle" x="630" y="-858.8" font-family="Times,serif" font-size="14.00" fill="#ffffff">ROCm</text>
</g>
<!-- hipsycl_rocm_supported_hw -->
<g id="node14" class="node">
<title>hipsycl_rocm_supported_hw</title>
<polygon fill="transparent" stroke="transparent" points="931,-870 851,-870 851,-855 931,-855 931,-870"/>
<text text-anchor="middle" x="891" y="-858.8" font-family="Times,serif" font-size="14.00">AMD GPUs</text>
</g>
<!-- hipsycl_rocm&#45;&gt;hipsycl_rocm_supported_hw -->
<!-- hipsycl_openmp -->
<g id="node15" class="node">
<title>hipsycl_openmp</title>
<path fill="#545454" stroke="#545454" d="M708,-812C708,-812 552,-812 552,-812 546,-812 540,-806 540,-800 540,-800 540,-759 540,-759 540,-753 546,-747 552,-747 552,-747 708,-747 708,-747 714,-747 720,-753 720,-759 720,-759 720,-800 720,-800 720,-806 714,-812 708,-812"/>
<text text-anchor="middle" x="630" y="-775.8" font-family="Times,serif" font-size="14.00" fill="#ffffff">OpenMP</text>
</g>
<!-- hipsycl_openmp_supported_hw -->
<g id="node16" class="node">
<title>hipsycl_openmp_supported_hw</title>
<polygon fill="transparent" stroke="transparent" points="923,-787 859,-787 859,-772 923,-772 923,-787"/>
<text text-anchor="middle" x="891" y="-775.8" font-family="Times,serif" font-size="14.00">Any CPU</text>
</g>
<!-- hipsycl_openmp&#45;&gt;hipsycl_openmp_supported_hw -->
<!-- hipsycl_l0 -->
<g id="node17" class="node">
<title>hipsycl_l0</title>
<path fill="#545454" stroke="#545454" d="M708,-729C708,-729 552,-729 552,-729 546,-729 540,-723 540,-717 540,-717 540,-676 540,-676 540,-670 546,-664 552,-664 552,-664 708,-664 708,-664 714,-664 720,-670 720,-676 720,-676 720,-717 720,-717 720,-723 714,-729 708,-729"/>
<text text-anchor="middle" x="630" y="-692.8" font-family="Times,serif" font-size="14.00" fill="#ffffff">Level Zero</text>
</g>
<!-- hipsycl_l0_supported_hw -->
<g id="node18" class="node">
<title>hipsycl_l0_supported_hw</title>
<polygon fill="transparent" stroke="transparent" points="930,-704 852,-704 852,-689 930,-689 930,-704"/>
<text text-anchor="middle" x="891" y="-692.8" font-family="Times,serif" font-size="14.00">Intel GPUs</text>
</g>
<!-- hipsycl_l0&#45;&gt;hipsycl_l0_supported_hw -->
<!-- hipSYCL&#45;&gt;hipsycl_cuda -->
<g id="edge14" class="edge">
<title>hipSYCL:e&#45;&gt;hipsycl_cuda:w</title>
<path fill="none" stroke="#c50d28" stroke-width="2" d="M482,-779.5C556.34,-779.5 471.03,-929.68 529.77,-944.35"/>
<polygon fill="#c50d28" stroke="#c50d28" stroke-width="2" points="529.67,-947.86 540,-945.5 530.45,-940.91 529.67,-947.86"/>
</g>
<!-- hipSYCL&#45;&gt;hipsycl_rocm -->
<g id="edge15" class="edge">
<title>hipSYCL:e&#45;&gt;hipsycl_rocm:w</title>
<path fill="none" stroke="#c50d28" stroke-width="2" d="M482,-779.5C523.14,-779.5 499.93,-848.85 530.01,-860.77"/>
<polygon fill="#c50d28" stroke="#c50d28" stroke-width="2" points="529.55,-864.24 540,-862.5 530.75,-857.34 529.55,-864.24"/>
</g>
<!-- hipSYCL&#45;&gt;hipsycl_openmp -->
<g id="edge16" class="edge">
<title>hipSYCL:e&#45;&gt;hipsycl_openmp:w</title>
<path fill="none" stroke="#c50d28" stroke-width="2" d="M482,-779.5C503.95,-779.5 511.88,-779.5 529.67,-779.5"/>
<polygon fill="#c50d28" stroke="#c50d28" stroke-width="2" points="530,-783 540,-779.5 530,-776 530,-783"/>
</g>
<!-- hipSYCL&#45;&gt;hipsycl_l0 -->
<g id="edge17" class="edge">
<title>hipSYCL:e&#45;&gt;hipsycl_l0:w</title>
<path fill="none" stroke="#c50d28" stroke-width="2" stroke-dasharray="5,2" d="M482,-779.5C523.14,-779.5 499.93,-710.15 530.01,-698.23"/>
<polygon fill="#c50d28" stroke="#c50d28" stroke-width="2" points="530.75,-701.66 540,-696.5 529.55,-694.76 530.75,-701.66"/>
<text text-anchor="middle" x="523.59" y="-704.23" font-family="Times,serif" font-size="14.00">[0]</text>
</g>
<!-- trisycl_opencl -->
<g id="node20" class="node">
<title>trisycl_opencl</title>
<path fill="#161b2c" stroke="#161b2c" d="M708,-646C708,-646 552,-646 552,-646 546,-646 540,-640 540,-634 540,-634 540,-593 540,-593 540,-587 546,-581 552,-581 552,-581 708,-581 708,-581 714,-581 720,-587 720,-593 720,-593 720,-634 720,-634 720,-640 714,-646 708,-646"/>
<text text-anchor="middle" x="630" y="-609.8" font-family="Times,serif" font-size="14.00" fill="#ffffff">OpenCL+SPIR&#45;df</text>
</g>
<!-- trisycl_opencl_supported_hw -->
<g id="node21" class="node">
<title>trisycl_opencl_supported_hw</title>
<polygon fill="transparent" stroke="transparent" points="938,-628.5 844,-628.5 844,-598.5 938,-598.5 938,-628.5"/>
<text text-anchor="middle" x="891" y="-617.3" font-family="Times,serif" font-size="14.00">Xilinx FPGAs</text>
<text text-anchor="middle" x="891" y="-602.3" font-family="Times,serif" font-size="14.00">pocl</text>
</g>
<!-- trisycl_opencl&#45;&gt;trisycl_opencl_supported_hw -->
<!-- trisycl_tbb -->
<g id="node22" class="node">
<title>trisycl_tbb</title>
<path fill="#161b2c" stroke="#161b2c" d="M708,-563C708,-563 552,-563 552,-563 546,-563 540,-557 540,-551 540,-551 540,-510 540,-510 540,-504 546,-498 552,-498 552,-498 708,-498 708,-498 714,-498 720,-504 720,-510 720,-510 720,-551 720,-551 720,-557 714,-563 708,-563"/>
<text text-anchor="middle" x="630" y="-526.8" font-family="Times,serif" font-size="14.00" fill="#ffffff">TBB</text>
</g>
<!-- trisycl_tbb_supported_hw -->
<g id="node23" class="node">
<title>trisycl_tbb_supported_hw</title>
<polygon fill="transparent" stroke="transparent" points="923,-538 859,-538 859,-523 923,-523 923,-538"/>
<text text-anchor="middle" x="891" y="-526.8" font-family="Times,serif" font-size="14.00">Any CPU</text>
</g>
<!-- trisycl_tbb&#45;&gt;trisycl_tbb_supported_hw -->
<!-- trisycl_openmp -->
<g id="node24" class="node">
<title>trisycl_openmp</title>
<path fill="#161b2c" stroke="#161b2c" d="M708,-480C708,-480 552,-480 552,-480 546,-480 540,-474 540,-468 540,-468 540,-427 540,-427 540,-421 546,-415 552,-415 552,-415 708,-415 708,-415 714,-415 720,-421 720,-427 720,-427 720,-468 720,-468 720,-474 714,-480 708,-480"/>
<text text-anchor="middle" x="630" y="-443.8" font-family="Times,serif" font-size="14.00" fill="#ffffff">OpenMP</text>
</g>
<!-- trisycl_openmp_supported_hw -->
<g id="node25" class="node">
<title>trisycl_openmp_supported_hw</title>
<polygon fill="transparent" stroke="transparent" points="923,-455 859,-455 859,-440 923,-440 923,-455"/>
<text text-anchor="middle" x="891" y="-443.8" font-family="Times,serif" font-size="14.00">Any CPU</text>
</g>
<!-- trisycl_openmp&#45;&gt;trisycl_openmp_supported_hw -->
<!-- triSYCL&#45;&gt;trisycl_opencl -->
<g id="edge24" class="edge">
<title>triSYCL:e&#45;&gt;trisycl_opencl:w</title>
<path fill="none" stroke="#ed3924" stroke-width="2" stroke-dasharray="5,2" d="M482,-530.5C523.14,-530.5 499.93,-599.85 530.01,-611.77"/>
<polygon fill="#ed3924" stroke="#ed3924" stroke-width="2" points="529.55,-615.24 540,-613.5 530.75,-608.34 529.55,-615.24"/>
<text text-anchor="middle" x="520.7" y="-615.03" font-family="Times,serif" font-size="14.00">[1]</text>
</g>
<!-- triSYCL&#45;&gt;trisycl_tbb -->
<g id="edge23" class="edge">
<title>triSYCL:e&#45;&gt;trisycl_tbb:w</title>
<path fill="none" stroke="#ed3924" stroke-width="2" d="M482,-530.5C503.95,-530.5 511.88,-530.5 529.67,-530.5"/>
<polygon fill="#ed3924" stroke="#ed3924" stroke-width="2" points="530,-534 540,-530.5 530,-527 530,-534"/>
</g>
<!-- triSYCL&#45;&gt;trisycl_openmp -->
<g id="edge22" class="edge">
<title>triSYCL:e&#45;&gt;trisycl_openmp:w</title>
<path fill="none" stroke="#ed3924" stroke-width="2" d="M482,-530.5C523.14,-530.5 499.93,-461.15 530.01,-449.23"/>
<polygon fill="#ed3924" stroke="#ed3924" stroke-width="2" points="530.75,-452.66 540,-447.5 529.55,-445.76 530.75,-452.66"/>
</g>
<!-- neosycl_veo -->
<g id="node27" class="node">
<title>neosycl_veo</title>
<path fill="#1413a8" stroke="#1413a8" d="M708,-397C708,-397 552,-397 552,-397 546,-397 540,-391 540,-385 540,-385 540,-344 540,-344 540,-338 546,-332 552,-332 552,-332 708,-332 708,-332 714,-332 720,-338 720,-344 720,-344 720,-385 720,-385 720,-391 714,-397 708,-397"/>
<text text-anchor="middle" x="630" y="-360.8" font-family="Times,serif" font-size="14.00" fill="#ffffff">VEO</text>
</g>
<!-- neosycl_veo_supported_hw -->
<g id="node28" class="node">
<title>neosycl_veo_supported_hw</title>
<polygon fill="transparent" stroke="transparent" points="984,-372 798,-372 798,-357 984,-357 984,-372"/>
<text text-anchor="middle" x="891" y="-360.8" font-family="Times,serif" font-size="14.00">NEC SX&#45;Aurora TSUBASA</text>
</g>
<!-- neosycl_veo&#45;&gt;neosycl_veo_supported_hw -->
<!-- neoSYCL&#45;&gt;neosycl_veo -->
<g id="edge27" class="edge">
<title>neoSYCL:e&#45;&gt;neosycl_veo:w</title>
<path fill="none" stroke="#1413a8" stroke-width="2" d="M482,-364.5C503.95,-364.5 511.88,-364.5 529.67,-364.5"/>
<polygon fill="#1413a8" stroke="#1413a8" stroke-width="2" points="530,-368 540,-364.5 530,-361 530,-368"/>
</g>
<!-- computecpp_host -->
<g id="node30" class="node">
<title>computecpp_host</title>
<path fill="#993696" stroke="#993696" d="M708,-314C708,-314 552,-314 552,-314 546,-314 540,-308 540,-302 540,-302 540,-261 540,-261 540,-255 546,-249 552,-249 552,-249 708,-249 708,-249 714,-249 720,-255 720,-261 720,-261 720,-302 720,-302 720,-308 714,-314 708,-314"/>
<text text-anchor="middle" x="630" y="-277.8" font-family="Times,serif" font-size="14.00" fill="#ffffff">Host</text>
</g>
<!-- computecpp_host_supported_hw -->
<g id="node31" class="node">
<title>computecpp_host_supported_hw</title>
<polygon fill="transparent" stroke="transparent" points="923,-289 859,-289 859,-274 923,-274 923,-289"/>
<text text-anchor="middle" x="891" y="-277.8" font-family="Times,serif" font-size="14.00">Any CPU</text>
</g>
<!-- computecpp_host&#45;&gt;computecpp_host_supported_hw -->
<!-- computecpp_ptx -->
<g id="node32" class="node">
<title>computecpp_ptx</title>
<path fill="#993696" stroke="#993696" d="M708,-231C708,-231 552,-231 552,-231 546,-231 540,-225 540,-219 540,-219 540,-178 540,-178 540,-172 546,-166 552,-166 552,-166 708,-166 708,-166 714,-166 720,-172 720,-178 720,-178 720,-219 720,-219 720,-225 714,-231 708,-231"/>
<text text-anchor="middle" x="630" y="-194.8" font-family="Times,serif" font-size="14.00" fill="#ffffff">OpenCL+PTX</text>
</g>
<!-- computecpp_ptx_supported_hw -->
<g id="node33" class="node">
<title>computecpp_ptx_supported_hw</title>
<polygon fill="transparent" stroke="transparent" points="940,-206 842,-206 842,-191 940,-191 940,-206"/>
<text text-anchor="middle" x="891" y="-194.8" font-family="Times,serif" font-size="14.00">NVIDIA GPUs</text>
</g>
<!-- computecpp_ptx&#45;&gt;computecpp_ptx_supported_hw -->
<!-- computecpp_opencl -->
<g id="node34" class="node">
<title>computecpp_opencl</title>
<path fill="#993696" stroke="#993696" d="M708,-148C708,-148 552,-148 552,-148 546,-148 540,-142 540,-136 540,-136 540,-95 540,-95 540,-89 546,-83 552,-83 552,-83 708,-83 708,-83 714,-83 720,-89 720,-95 720,-95 720,-136 720,-136 720,-142 714,-148 708,-148"/>
<text text-anchor="middle" x="630" y="-111.8" font-family="Times,serif" font-size="14.00" fill="#ffffff">OpenCL+SPIR/SPIR&#45;V</text>
</g>
<!-- computecpp_opencl_supported_hw -->
<g id="node35" class="node">
<title>computecpp_opencl_supported_hw</title>
<polygon fill="transparent" stroke="transparent" points="1004,-153 778,-153 778,-78 1004,-78 1004,-153"/>
<text text-anchor="middle" x="891" y="-141.8" font-family="Times,serif" font-size="14.00">Intel CPUs</text>
<text text-anchor="middle" x="891" y="-126.8" font-family="Times,serif" font-size="14.00">Intel GPUs</text>
<text text-anchor="middle" x="891" y="-111.8" font-family="Times,serif" font-size="14.00">AMD GPUs (Only some drivers)</text>
<text text-anchor="middle" x="891" y="-96.8" font-family="Times,serif" font-size="14.00">ARM Mali</text>
<text text-anchor="middle" x="891" y="-81.8" font-family="Times,serif" font-size="14.00">Renesas R&#45;Car</text>
</g>
<!-- computecpp_opencl&#45;&gt;computecpp_opencl_supported_hw -->
<!-- ComputeCpp&#45;&gt;computecpp_host -->
<g id="edge32" class="edge">
<title>ComputeCpp:e&#45;&gt;computecpp_host:w</title>
<path fill="none" stroke="#a6d4fc" stroke-width="2" d="M482,-198.5C523.14,-198.5 499.93,-267.85 530.01,-279.77"/>
<polygon fill="#a6d4fc" stroke="#a6d4fc" stroke-width="2" points="529.55,-283.24 540,-281.5 530.75,-276.34 529.55,-283.24"/>
</g>
<!-- ComputeCpp&#45;&gt;computecpp_ptx -->
<g id="edge34" class="edge">
<title>ComputeCpp:e&#45;&gt;computecpp_ptx:w</title>
<path fill="none" stroke="#a6d4fc" stroke-width="2" stroke-dasharray="5,2" d="M482,-198.5C503.95,-198.5 511.88,-198.5 529.67,-198.5"/>
<polygon fill="#a6d4fc" stroke="#a6d4fc" stroke-width="2" points="530,-202 540,-198.5 530,-195 530,-202"/>
<text text-anchor="middle" x="521.87" y="-203.25" font-family="Times,serif" font-size="14.00">[2]</text>
</g>
<!-- ComputeCpp&#45;&gt;computecpp_opencl -->
<g id="edge33" class="edge">
<title>ComputeCpp:e&#45;&gt;computecpp_opencl:w</title>
<path fill="none" stroke="#a6d4fc" stroke-width="2" d="M482,-198.5C523.14,-198.5 499.93,-129.15 530.01,-117.23"/>
<polygon fill="#a6d4fc" stroke="#a6d4fc" stroke-width="2" points="530.75,-120.66 540,-115.5 529.55,-113.76 530.75,-120.66"/>
</g>
<!-- sycl_gtx_opencl -->
<g id="node37" class="node">
<title>sycl_gtx_opencl</title>
<path fill="#0f739e" stroke="#0f739e" d="M708,-65C708,-65 552,-65 552,-65 546,-65 540,-59 540,-53 540,-53 540,-12 540,-12 540,-6 546,0 552,0 552,0 708,0 708,0 714,0 720,-6 720,-12 720,-12 720,-53 720,-53 720,-59 714,-65 708,-65"/>
<text text-anchor="middle" x="630" y="-28.8" font-family="Times,serif" font-size="14.00" fill="#ffffff">OpenCL 1.2</text>
</g>
<!-- sycl_gtx_opencl_supported_hw -->
<g id="node38" class="node">
<title>sycl_gtx_opencl_supported_hw</title>
<polygon fill="transparent" stroke="transparent" points="974,-40 808,-40 808,-25 974,-25 974,-40"/>
<text text-anchor="middle" x="891" y="-28.8" font-family="Times,serif" font-size="14.00">Any OpenCL 1.2 device</text>
</g>
<!-- sycl_gtx_opencl&#45;&gt;sycl_gtx_opencl_supported_hw -->
<!-- sycl&#45;gtx&#45;&gt;sycl_gtx_opencl -->
<g id="edge37" class="edge">
<title>sycl&#45;gtx:e&#45;&gt;sycl_gtx_opencl:w</title>
<path fill="none" stroke="#ff9b43" stroke-width="2" d="M482,-32.5C503.95,-32.5 511.88,-32.5 529.67,-32.5"/>
<polygon fill="#ff9b43" stroke="#ff9b43" stroke-width="2" points="530,-36 540,-32.5 530,-29 530,-36"/>
</g>
<!-- footnotes -->
<g id="node40" class="node">
<title>footnotes</title>
<polygon fill="transparent" stroke="transparent" points="244,-558.5 0,-558.5 0,-498.5 244,-498.5 244,-558.5"/>
<text text-anchor="start" x="0" y="-547.3" font-family="Times,serif" font-size="14.00">[0] experimental</text>
<text text-anchor="start" x="0" y="-532.3" font-family="Times,serif" font-size="14.00">[1] experimental</text>
<text text-anchor="start" x="0" y="-517.3" font-family="Times,serif" font-size="14.00">[2] experimental</text>
<text text-anchor="start" x="0" y="-502.3" font-family="Times,serif" font-size="14.00">[3] Non&#45;standard macros required</text>
</g>
</g>
</svg>
